<svg width="24" height="25" viewBox="0 0 24 25" fill="none" xmlns="http://www.w3.org/2000/svg">
<path fill-rule="evenodd" clip-rule="evenodd" d="M11.6536 17.0671C11.3814 17.3793 10.9076 17.4117 10.5954 17.1395L6.00715 13.1395C5.84377 12.9971 5.75 12.791 5.75 12.5742C5.75 12.3575 5.84377 12.1513 6.00715 12.0089L10.5954 8.00888C10.9076 7.73668 11.3814 7.76913 11.6536 8.08136C11.9258 8.39358 11.8933 8.86734 11.5811 9.13954L8.50161 11.8242L17.5 11.8242C17.9142 11.8242 18.25 12.16 18.25 12.5742C18.25 12.9884 17.9142 13.3242 17.5 13.3242L8.50161 13.3242L11.5811 16.0089C11.8933 16.2811 11.9258 16.7548 11.6536 17.0671Z" fill="white"/>
</svg>
