<svg width="10" height="10" viewBox="0 0 10 10" fill="none" xmlns="http://www.w3.org/2000/svg">
<path fill-rule="evenodd" clip-rule="evenodd" d="M2.0679 1.578C2.0396 1.16476 2.35165 0.80681 2.7649 0.778506L8.8377 0.362561C9.05394 0.34775 9.26601 0.427214 9.41928 0.580478C9.57254 0.733742 9.65201 0.945816 9.6372 1.16206L9.22125 7.23486C9.19295 7.6481 8.835 7.96016 8.42175 7.93185C8.00851 7.90355 7.69645 7.5456 7.72476 7.13236L8.00393 3.05649L1.6411 9.41931C1.34821 9.71221 0.873338 9.71221 0.580445 9.41931C0.287551 9.12642 0.287551 8.65154 0.580445 8.35865L6.94327 1.99583L2.8674 2.275C2.45415 2.3033 2.09621 1.99125 2.0679 1.578Z" fill="white"/>
</svg>
