<svg width="24" height="25" viewBox="0 0 24 25" fill="none" xmlns="http://www.w3.org/2000/svg">
<path fill-rule="evenodd" clip-rule="evenodd" d="M12.3464 8.08138C12.6186 7.76916 13.0924 7.73671 13.4046 8.0089L17.9929 12.0089C18.1562 12.1513 18.25 12.3575 18.25 12.5742C18.25 12.791 18.1562 12.9971 17.9929 13.1396L13.4046 17.1396C13.0924 17.4118 12.6186 17.3793 12.3464 17.0671C12.0742 16.7549 12.1067 16.2811 12.4189 16.0089L15.4984 13.3242H6.5C6.08579 13.3242 5.75 12.9884 5.75 12.5742C5.75 12.16 6.08579 11.8242 6.5 11.8242H15.4984L12.4189 9.13956C12.1067 8.86736 12.0742 8.3936 12.3464 8.08138Z" fill="white"/>
</svg>
