<svg width="18" height="18" viewBox="0 0 18 18" fill="none" xmlns="http://www.w3.org/2000/svg">
<path d="M5.32842 2.24609C5.0758 2.24609 4.82487 2.28455 4.58301 2.35994L4.39814 2.41757C3.3212 2.75327 2.54128 3.71352 2.33853 4.86215C2.22049 5.53092 2.22049 6.21818 2.33853 6.88695C2.34318 6.91325 2.34812 6.93945 2.35337 6.96555C3.19803 11.3485 6.63214 14.7768 11.0225 15.62C11.0486 15.6253 11.0749 15.6302 11.1013 15.6348C11.7712 15.7527 12.4596 15.7527 13.1295 15.6348C14.2801 15.4324 15.242 14.6538 15.5782 13.5787L15.636 13.3942C15.7115 13.1527 15.75 12.9022 15.75 12.65C15.75 11.4378 14.6808 10.5397 13.4716 10.5397H10.7592C9.55001 10.5397 8.48077 11.4378 8.48077 12.65C8.48077 12.9022 8.51929 13.1527 8.59481 13.3942L8.65254 13.5787C8.67225 13.6417 8.69411 13.7037 8.71803 13.7647C6.76193 12.8031 5.17508 11.2189 4.21188 9.26615C4.2729 9.29003 4.33501 9.31186 4.39814 9.33153L4.58301 9.38916C4.82487 9.46456 5.07579 9.50301 5.32842 9.50301C6.54269 9.50301 7.44231 8.43558 7.44231 7.22844L7.44231 4.52066C7.44231 3.31352 6.54269 2.24609 5.32842 2.24609Z" fill="#69442E"/>
</svg>
