<svg width="69" height="66" viewBox="0 0 69 66" fill="none" xmlns="http://www.w3.org/2000/svg">
<g clip-path="url(#clip0_842_418)">
<path d="M44.2625 35.5188C45.1903 37.1157 44.5555 39.2972 44.0232 40.9162C43.3201 43.0462 42.1799 44.6774 40.3097 45.9328C38.5347 47.1268 35.744 48.0776 33.6297 47.4879C32.4602 47.1612 31.3346 45.8886 30.0553 46.1588C29.2569 46.3284 29.2569 47.3823 29.8453 47.7803C34.1009 50.6596 39.0401 49.5418 42.678 46.1392C45.1903 43.7906 47.1753 38.0713 44.7557 35.1331C44.5238 34.8505 44.0867 35.2141 44.2625 35.5163V35.5188Z" fill="#CF8269"/>
<path d="M31.5766 57.0123C32.0576 57.7345 32.9194 57.6559 33.6983 57.6608C34.7555 57.6657 36.2985 57.479 37.0993 58.3241C37.0529 57.9679 37.009 57.6117 36.9626 57.2555C35.9762 58.5526 33.9962 58.6484 32.729 59.5992C32.1357 60.0438 32.0698 61.1494 32.9536 61.3361C34.15 61.5891 35.3414 61.5891 36.5573 61.5228C37.7585 61.4565 37.7659 59.6925 36.5573 59.6409C35.5197 59.5967 34.482 59.6975 33.4566 59.5009L33.8741 61.0904C35.3805 59.9161 37.3826 59.9014 38.4739 58.1423C38.6692 57.8254 38.6253 57.3267 38.3372 57.0737C37.4558 56.3047 36.3913 56.145 35.256 56.1475C34.3526 56.1475 33 56.5848 32.1308 56.2851C31.7304 56.1475 31.3447 56.656 31.579 57.0098L31.5766 57.0123Z" fill="#CF8269"/>
<path d="M28.4605 50.8954C23.9022 46.1441 21.5583 39.5429 21.4777 32.9614C21.385 25.3234 29.4542 21.4737 36.0244 21.1789C39.3717 21.0291 42.8362 21.8545 45.2069 24.3481C47.3433 26.596 47.8413 30.087 48.0074 33.0523C48.3516 39.2064 47.314 45.9918 41.6814 49.4681C40.2116 50.3746 41.5202 52.6422 43.0315 51.7946C50.0119 47.8811 51.2131 39.3292 50.5612 32.0155C50.2389 28.4041 49.1769 24.8517 46.5962 22.223C43.8861 19.4641 39.7257 18.6755 36.0244 18.7443C28.375 18.8868 20.0958 23.5202 19.1583 31.7305C18.7188 35.5704 19.7418 40.1227 21.2556 43.6407C22.6008 46.7682 24.8007 50.2297 28.1553 51.4236C28.4629 51.5342 28.668 51.1116 28.4605 50.8954Z" fill="#C68A23"/>
<path d="M27.7525 51.9367C32.2547 51.4306 36.8911 52.8285 41.3811 52.5607C42.116 52.5165 42.7508 51.4994 42.0501 50.9344C40.5241 49.706 38.0753 50.4971 36.2563 50.529C34.5522 50.5585 32.8333 50.8091 31.1365 50.9393C29.9401 51.0302 28.8121 50.868 27.6646 51.2931C27.3448 51.411 27.3619 51.9809 27.7501 51.9367H27.7525Z" fill="#C68A23"/>
<path d="M27.6257 51.4824C26.8468 52.217 26.1095 53.5633 27.0812 54.5165C28.1921 55.6048 29.6375 55.31 31.0804 55.2216C34.9502 54.9833 39.7259 56.4647 43.3833 54.7892C43.8325 54.5828 44.0083 53.976 43.8911 53.5313C43.7031 52.8091 43.3882 52.4086 42.8071 51.9689C42.0062 51.3621 41.2469 52.4848 41.5765 53.2071C41.6229 53.4134 41.6693 53.6198 41.7157 53.8286C41.9867 53.4699 42.2577 53.1112 42.5287 52.755C40.3533 53.5092 37.9118 53.1407 35.6461 53.2021C34.125 53.2439 32.5966 53.1456 31.078 53.2464C30.4847 53.2857 27.0226 54.0767 28.2629 51.9811C28.5046 51.5709 27.9577 51.1704 27.6232 51.4849L27.6257 51.4824Z" fill="#C68A23"/>
<path d="M28.1165 54.8266C27.4426 55.1165 27.1741 55.6692 26.8518 56.3031C26.7151 56.5709 26.7175 56.9443 26.9617 57.158C29.7548 59.6049 33.9029 58.605 37.2332 58.2095C39.1644 57.981 44.1329 59.2487 43.4493 55.7601C43.293 54.9642 42.0332 54.7799 41.6865 55.5292C41.2959 56.3719 40.0287 55.8953 39.2352 55.9125C38.1194 55.937 36.9939 56.1483 35.8952 56.3227C33.1656 56.7576 30.4213 57.2366 27.8089 56.0476C27.9163 56.3129 28.0237 56.5782 28.1311 56.8436C28.1727 56.6151 28.2435 55.3843 28.4119 55.2098C28.6194 54.9961 28.3582 54.721 28.1165 54.8241V54.8266Z" fill="#C68A23"/>
<path d="M27.6552 57.8134C27.7333 58.4792 27.0888 59.3931 26.9642 60.0613C26.8959 60.42 26.9984 60.8401 27.3524 61.0195C30.4678 62.604 34.3816 62.7785 37.8022 62.5942C39.416 62.5082 40.7393 62.1987 42.026 61.1841C43.0881 60.3439 43.2175 58.6708 42.192 57.8208C41.6036 57.3344 40.6344 57.612 40.6368 58.4694C40.6441 62.3043 30.1407 60.0859 28.0043 59.4717C28.2094 59.7444 28.417 60.0171 28.622 60.2898C28.5488 59.5847 29.0786 57.7127 27.9872 57.5653C27.8383 57.5457 27.6332 57.6292 27.6576 57.8183L27.6552 57.8134Z" fill="#C68A23"/>
<path d="M30.2284 61.5828C29.4007 61.3862 29.1029 61.9906 29.557 62.6809C30.3529 63.8896 31.6982 64.6021 32.9898 65.145C35.612 66.2481 40.0214 65.2752 39.4671 61.6172C39.3206 60.6492 38.0071 60.691 37.5652 61.3666C37.094 62.0889 37.0525 62.8504 36.2419 63.3049C35.5436 63.6956 34.5719 63.5875 33.8223 63.4695C32.9507 63.3344 32.1084 63.0052 31.3051 62.6514C31.0658 62.5458 29.3958 61.7449 30.1478 61.8825C30.3431 61.9193 30.4286 61.627 30.2308 61.5803L30.2284 61.5828Z" fill="#C68A23"/>
<path d="M30.0039 37.3541C29.3202 41.7099 30.0136 46.0976 29.7475 50.4632C29.6987 51.2665 30.4922 51.6449 31.1612 51.5466C31.5567 51.4901 31.7886 51.3304 32.0743 51.0602C32.7042 50.4632 32.2647 49.1292 31.3223 49.2324C31.0586 49.2618 30.8193 49.2913 30.5679 49.3798C31.0269 49.6426 31.4834 49.903 31.9424 50.1659C31.3199 45.933 30.7827 41.6607 30.3799 37.4057C30.3603 37.2067 30.0405 37.1256 30.0039 37.3541Z" fill="#C68A23"/>
<path d="M29.5935 37.6442C29.9085 39.5776 30.9998 41.8206 33.08 42.2628C35.7462 42.8278 36.3517 39.1845 38.1682 38.2166C37.6286 37.9046 37.089 37.595 36.5519 37.283C36.6837 41.4054 36.5836 45.5302 36.5348 49.6551C36.5152 51.3158 39.1228 51.3158 39.0959 49.6551C39.03 45.5278 39.0056 41.4029 38.7029 37.283C38.6443 36.4846 37.8288 35.9122 37.0866 36.3495C35.7706 37.1233 35.2115 38.4598 34.4497 39.7201C32.7699 42.5035 30.8167 39.155 30.1355 37.4992C29.9988 37.1675 29.5398 37.2879 29.5984 37.6491L29.5935 37.6442Z" fill="#C68A23"/>
<path d="M36.6764 26.8737C38.1901 26.7337 39.3303 27.1047 40.1922 28.419C40.91 29.5123 40.9808 30.9175 41.7767 31.9444C42.265 32.5758 43.1147 31.9788 43.1733 31.3622C43.3222 29.8071 41.9574 27.9277 40.8636 26.9499C39.6526 25.8665 37.9973 25.7265 36.5543 26.4168C36.3395 26.52 36.4396 26.8959 36.6764 26.8737Z" fill="#C68A23"/>
<path d="M33.9761 14.1871C34.9161 12.6075 34.8087 11.1089 34.6549 9.313C34.4278 6.64499 35.0748 3.97699 34.8502 1.32127C34.7647 0.314016 33.4146 0.331213 33.3096 1.32127C33.0654 3.61585 33.0899 6.10206 33.2608 8.40401C33.3853 10.0893 34.2935 12.3127 33.5367 13.9267C33.3975 14.2215 33.8052 14.4746 33.9786 14.1871H33.9761Z" fill="#C68A23"/>
<path d="M52.4876 18.5677C55.8447 17.73 58.7354 15.4526 61.968 14.2414C61.5603 14.008 61.1526 13.7771 60.7473 13.5437L60.8156 13.7132C60.9621 13.3496 61.1111 12.9836 61.2575 12.62C61.1843 12.6716 61.1111 12.7232 61.0378 12.7748C60.2126 13.3545 60.696 14.7524 61.7434 14.4601C61.8289 14.4355 61.9119 14.4134 61.9973 14.3888C62.3953 14.2783 62.7249 13.8827 62.7029 13.4553C62.7005 13.3963 62.698 13.3373 62.6956 13.2784C62.6687 12.6912 62.0706 12.0623 61.4382 12.3154C58.1422 13.6371 55.1171 15.966 52.2752 18.069C52.0335 18.2483 52.1702 18.6488 52.4851 18.5702L52.4876 18.5677Z" fill="#C68A23"/>
<path d="M20.2203 17.6635C19.5245 16.2017 18.2427 15.2264 16.9365 14.3346C16.0575 13.7352 15.1273 13.2119 14.2068 12.6812C13.4842 12.266 12.7248 11.6519 11.8923 11.5241C11.1427 11.4087 10.63 12.1923 11.1549 12.8016C12.1096 13.9121 14.1751 14.3911 15.474 15.0225C17.0244 15.7792 18.6455 16.6685 19.7589 18.0246C19.9859 18.3022 20.3595 17.9485 20.2252 17.6635H20.2203Z" fill="#C68A23"/>
<path d="M10.5862 32.2265C7.54646 31.6344 3.40319 32.0251 0.524626 33.1945C-0.368973 33.5581 -0.0491331 34.87 0.927478 34.666C2.53644 34.3319 4.09658 33.8283 5.72264 33.5458C7.33649 33.2633 8.97475 33.2068 10.5862 32.9267C10.9353 32.8653 10.928 32.2929 10.5862 32.2265Z" fill="#C68A23"/>
<path d="M14.7735 47.4778C13.5528 47.8782 12.5151 48.6619 11.5287 49.4677C10.4276 50.3669 9.25568 51.3398 8.30104 52.3937C7.77855 52.971 8.49392 54.0471 9.17022 53.5287C10.1542 52.7745 10.9525 51.7795 11.8144 50.8902C12.8154 49.8584 13.9141 49.0059 15.047 48.1313C15.3424 47.9028 15.1886 47.3427 14.7735 47.4778Z" fill="#C68A23"/>
<path d="M58.179 31.6885C58.1107 31.7131 58.0423 31.7352 57.9739 31.7598C57.8787 32.1111 57.7859 32.4624 57.6907 32.8112C61.353 32.8358 64.7882 33.9168 68.4041 34.2165C69.1195 34.2754 69.2196 33.1847 68.5677 32.993C65.1252 31.9809 61.1284 31.2045 57.5418 31.7008C56.824 31.7991 57.1633 33.0716 57.8396 32.7891C58.3353 32.5828 58.3914 32.482 58.5379 31.9637C58.5916 31.7696 58.3597 31.5583 58.179 31.6861V31.6885Z" fill="#C68A23"/>
<path d="M53.2615 48.8295C54.7728 50.6328 56.2573 52.6031 58.2838 53.8535C59.0724 54.3424 59.6925 53.1681 58.9918 52.6375C57.1802 51.2666 55.5541 49.7484 53.9134 48.1761C53.4788 47.7584 52.8855 48.38 53.2615 48.832V48.8295Z" fill="#C68A23"/>
</g>
<defs>
<clipPath id="clip0_842_418">
<rect width="69" height="65" fill="white" transform="translate(0 0.574219)"/>
</clipPath>
</defs>
</svg>
