<svg width="29" height="30" viewBox="0 0 29 30" fill="none" xmlns="http://www.w3.org/2000/svg">
<path d="M13.8335 0.706732C13.7421 0.714035 13.4459 0.735939 13.1753 0.757843C11.5077 0.892923 9.7011 1.38943 8.16882 2.13785C6.63654 2.88261 5.37853 3.79166 4.15709 5.03658C3.59026 5.61341 3.34524 5.89452 2.93566 6.43484C1.29732 8.58882 0.280675 11.2393 0.0831967 13.8642C0.0612547 14.1563 0.0283417 14.5579 0.0137137 14.7587C-0.00457125 14.9595 -0.00457125 15.288 0.0137137 15.4888C0.0283417 15.6896 0.0612547 16.0912 0.0831967 16.3833C0.302617 19.2857 1.52405 22.2136 3.46226 24.4698C3.79505 24.8604 4.6325 25.7001 5.02015 26.036C7.32771 28.033 10.2497 29.267 13.2118 29.4897C13.5044 29.5116 13.9067 29.5444 14.1078 29.5627C14.3309 29.5846 14.6125 29.5846 14.8209 29.5627C15.0111 29.5444 15.4243 29.5116 15.7352 29.4897C16.5104 29.4312 17.0956 29.329 17.3186 29.2049C17.9476 28.8654 18.0866 28.0038 17.6002 27.4708C17.2601 27.0984 16.9273 27.0327 16.1374 27.1677C15.6364 27.2517 14.009 27.2882 13.3581 27.2298C11.9172 27.0984 10.5678 26.7223 9.20741 26.0798C7.93843 25.4774 6.91081 24.74 5.84297 23.6703C5.23957 23.0642 4.84461 22.5933 4.42771 21.9873C3.27576 20.3115 2.5407 18.2999 2.35054 16.292C2.303 15.7736 2.303 14.4739 2.35054 13.9555C2.42733 13.145 2.62481 12.1922 2.8808 11.3963C3.29038 10.1185 4.00716 8.77135 4.87387 7.65056C5.29808 7.09929 6.39518 5.99675 6.92178 5.59151C8.6296 4.27722 10.4288 3.47769 12.4621 3.13452C13.1277 3.02134 13.6287 2.98483 14.4735 2.98483C15.8046 2.98483 16.792 3.12721 18.0317 3.49594C19.3336 3.88293 20.7928 4.6423 21.9594 5.5404C22.8005 6.18659 23.8903 7.34389 24.5193 8.26024C25.6712 9.93596 26.4063 11.9476 26.5964 13.9555C26.644 14.4739 26.644 15.7736 26.5964 16.292C26.494 17.3471 26.249 18.3803 25.8138 19.585C25.6383 20.0742 25.7114 20.4649 26.0479 20.8044C26.622 21.3922 27.5217 21.2352 27.88 20.4868C28.3225 19.5558 28.7614 17.7231 28.8638 16.3833C28.8857 16.073 28.9186 15.6604 28.9369 15.4706C28.9515 15.2807 28.9515 14.9595 28.9333 14.7587C28.9186 14.5579 28.8857 14.1563 28.8638 13.8642C28.6663 11.2429 27.6423 8.58151 26.0113 6.43484C25.1446 5.29214 23.9927 4.175 22.848 3.36452C20.8038 1.9115 18.4523 1.028 15.9802 0.776098C15.4609 0.721336 14.1444 0.681177 13.8335 0.706732Z" fill="white"/>
<path d="M13.2081 6.43165C12.6888 6.61784 12.3268 7.12165 12.1768 7.85911C12.0927 8.26435 12.0927 8.19864 12.2829 10.0313C12.3304 10.5023 12.4036 11.2179 12.4438 11.6194C12.5864 13.0031 12.7839 14.9198 12.8826 15.8544C12.9228 16.2341 12.9558 16.621 12.9558 16.7123C12.9594 17.0664 13.1276 17.636 13.3178 17.9171C13.6396 18.3953 13.9541 18.5742 14.4734 18.5742C14.894 18.5742 15.117 18.4866 15.373 18.2274C15.757 17.8368 15.9362 17.3841 15.9911 16.6612C16.0094 16.4166 16.0496 15.9821 16.0825 15.6901C16.1629 14.9088 16.3714 12.9082 16.503 11.6194C16.5433 11.2179 16.6164 10.5023 16.664 10.0313C16.8541 8.19499 16.8541 8.268 16.77 7.85546C16.6676 7.35895 16.5104 7.04133 16.2324 6.76387C15.8558 6.39149 15.9033 6.39879 14.5283 6.39149C13.6177 6.38419 13.3105 6.39149 13.2081 6.43165Z" fill="white"/>
<path d="M14.1262 19.9137C13.2119 20.0671 12.5171 20.8958 12.5171 21.8377C12.5171 22.3744 12.6817 22.8125 13.0254 23.1848C13.2741 23.4513 13.4752 23.5901 13.7678 23.6996C14.7552 24.0647 15.8376 23.539 16.1997 22.5131C16.2801 22.2867 16.2948 22.1809 16.2948 21.8596C16.2948 21.5383 16.2801 21.4325 16.1997 21.2061C15.8888 20.3263 14.9929 19.7677 14.1262 19.9137Z" fill="white"/>
</svg>
