<svg width="72" height="91" viewBox="0 0 72 91" fill="none" xmlns="http://www.w3.org/2000/svg">
<path d="M15.6148 66.8494C19.2405 67.0646 22.7111 68.7394 26.1035 69.9097C29.1181 70.9489 32.2101 71.8004 35.1916 72.9293C37.2787 73.72 39.3384 74.579 41.4794 75.2192C42.6984 75.5824 45.5956 76.5513 46.332 74.9128C46.5664 74.3934 46.4315 73.5757 45.7487 73.473C45.1773 73.3863 44.6373 73.4961 44.0646 73.4228C43.0136 73.2879 41.9816 72.9472 40.9789 72.6235C38.9816 71.9806 37.047 71.1712 35.0659 70.4845C31.9051 69.39 28.5925 68.523 25.3216 67.8391C22.1493 67.177 18.8933 65.9631 15.614 66.251C15.2329 66.2841 15.2321 66.8294 15.6163 66.8521L15.6148 66.8494Z" fill="#C68A23"/>
<path d="M16.1761 66.8295C18.3815 62.1559 19.6242 56.8828 21.1371 51.948C22.7221 46.7781 24.3135 41.61 25.8794 36.435C29.0065 26.1112 32.5423 15.8121 35.0553 5.32382C35.2948 4.31995 33.8892 3.97542 33.5456 4.91929C29.9265 14.8431 27.2384 25.163 24.2077 35.288C22.6566 40.467 21.1288 45.6522 19.5947 50.8357C18.0848 55.9455 16.1214 61.2065 15.3521 66.4827C15.2847 66.9459 15.9371 67.3316 16.1739 66.8289L16.1761 66.8295Z" fill="#C68A23"/>
<path d="M46.2935 74.5313C47.5493 72.6904 48.1171 70.2664 48.8033 68.163C49.6377 65.5996 50.4636 63.0339 51.281 60.4659C52.849 55.5459 54.3392 50.6027 55.8569 45.6669C57.374 40.7332 58.8452 35.7849 60.3375 30.8423C61.8082 25.9719 63.7881 20.988 64.6423 15.9707C64.8078 14.9974 63.3891 14.2024 62.9269 15.2498C60.9176 19.7926 59.8228 24.8692 58.3963 29.6255C56.9125 34.5703 55.4292 39.5131 53.9454 44.458C52.4621 49.4007 50.991 54.349 49.5834 59.3143C48.8485 61.9044 48.1221 64.4967 47.4 67.0902C46.7527 69.4127 45.7742 71.9718 45.8092 74.3992C45.8136 74.6708 46.1517 74.7385 46.2941 74.5291L46.2935 74.5313Z" fill="#C68A23"/>
<path d="M33.2422 7.51709C33.1894 7.51901 33.1367 7.52093 33.0825 7.52014C32.8089 7.63478 32.5375 7.74999 32.2639 7.86463C33.9291 9.32384 36.3497 9.69971 38.4481 10.1267C41.2699 10.6995 44.0081 11.5249 46.7697 12.3221C49.4742 13.1041 52.1553 13.8546 54.9131 14.4377C57.6651 15.0169 60.2145 16.5297 62.9933 16.848C64.4464 17.015 64.4471 14.9204 63.3011 14.4712C63.1617 14.4155 63.0217 14.362 62.8802 14.3057C61.8309 13.8939 61.0445 15.448 61.8011 16.1733C61.9113 16.2785 62.021 16.3858 62.1334 16.4915C62.5224 15.8188 62.9121 15.144 63.3011 14.4712C60.8673 13.8902 58.6357 12.7582 56.1906 12.1855C53.451 11.5431 50.7217 10.947 48.0036 10.2073C42.9529 8.83101 37.7936 8.29201 32.7289 7.06099C32.1193 6.91369 31.9155 7.77586 32.4797 7.99119C32.5436 8.0152 32.6075 8.0392 32.6709 8.06534C32.7839 8.10938 32.9063 8.05051 32.9933 7.97986C33.0768 7.95638 33.1581 7.93233 33.2422 7.90671C33.4843 7.87534 33.494 7.53416 33.2395 7.51867L33.2422 7.51709Z" fill="#C68A23"/>
<path d="M27.2023 82.197C26.8137 79.9545 26.3278 77.7364 25.999 75.4824C25.6434 73.0402 25.3306 70.5659 24.6241 68.197C24.2975 67.1034 22.5929 67.5702 22.9219 68.6714C24.2451 73.101 24.4422 78.345 26.8392 82.3496C26.9598 82.5515 27.2397 82.4133 27.2023 82.197Z" fill="#C68A23"/>
<path d="M19.2873 53.3892C19.0312 48.4159 18.3161 43.4365 17.7477 38.494C17.2016 33.7478 16.8561 28.7528 15.7094 24.1138C15.4699 23.1443 13.837 23.3348 13.9568 24.3616C14.5053 29.1497 15.683 33.9185 16.4764 38.6736C17.297 43.5897 17.8231 48.5712 18.7329 53.4676C18.7928 53.7862 19.3035 53.7098 19.2873 53.3892Z" fill="#C68A23"/>
<path d="M14.7822 25.6854C15.2913 25.1915 16.4559 25.0291 17.1047 24.8523C18.3257 24.5217 19.5683 24.2885 20.8063 24.0473C21.6415 23.886 22.4838 23.7496 23.3108 23.5426C24.2668 23.3037 25.2043 22.9979 26.1606 22.766C27.0415 22.5528 27.8052 22.5741 28.6369 22.2057C29.2572 21.9318 29.2758 20.8206 28.6473 20.5491C26.757 19.7355 24.5855 20.8267 22.7529 21.4748C21.5995 21.8831 20.3814 22.1182 19.2059 22.4564C17.9711 22.8131 14.08 23.6476 14.4413 25.594C14.4697 25.7506 14.676 25.7852 14.7801 25.6848L14.7822 25.6854Z" fill="#C68A23"/>
<path d="M26.9202 83.4282C30.3429 83.7402 33.7319 82.73 37.0727 82.0941C40.0979 81.5181 42.9949 80.6923 45.9709 79.9358C47.9289 79.4382 49.9111 79.0618 51.8513 78.4953C53.0969 78.1323 55.1413 77.651 55.2199 76.0448C55.2763 74.8773 53.715 74.6056 53.1469 75.4893C52.8041 76.0232 50.3354 76.5214 49.5153 76.7532C47.9708 77.1896 46.3902 77.5156 44.8628 78.007C38.9362 79.9165 32.8542 81.2709 26.8556 82.941C26.571 83.0206 26.6547 83.4029 26.9208 83.426L26.9202 83.4282Z" fill="#C68A23"/>
<path d="M54.6029 76.3904C54.957 75.2889 54.7481 74.0274 54.6447 72.8973C54.5037 71.3399 54.3013 69.7914 54.114 68.2377C53.7011 64.8152 53.3623 61.3874 52.9825 57.96C52.8391 56.6657 50.8234 56.6504 50.9459 57.9804C51.2514 61.3122 51.8307 64.6303 52.3678 67.9279C52.6231 69.4907 52.8607 71.0601 53.1614 72.6144C53.4039 73.8689 53.5236 75.3449 54.222 76.4396C54.3228 76.5973 54.5468 76.5656 54.6034 76.3883L54.6029 76.3904Z" fill="#C68A23"/>
<path d="M31.9776 36.7563C28.7607 41.2918 31.6606 48.0691 36.5938 49.8333C42.2478 51.8548 47.0914 47.5925 48.5098 42.2312C49.8605 37.1223 48.4225 31.2754 43.1964 29.2746C37.7173 27.1762 32.3632 31.2605 30.4939 36.3817C30.2187 37.1376 31.323 37.7681 31.8399 37.1687C33.1256 35.6819 34.0044 33.944 35.4506 32.5782C37.0723 31.0486 39.1734 30.6352 41.306 30.9935C46.0153 31.7809 47.3332 36.7041 46.6416 40.8689C45.9526 45.016 42.8223 49.1095 38.2524 48.5221C33.3464 47.8929 29.3716 41.4257 32.3091 36.9506C32.4478 36.7379 32.1204 36.5539 31.9782 36.7542L31.9776 36.7563Z" fill="#C68A23"/>
<path d="M21.5982 42.5286C21.1911 42.1674 21.4213 40.7325 21.4352 40.2572C21.4679 39.0764 21.4985 37.8951 21.5535 36.7158C21.654 34.5791 21.6384 32.4182 21.7781 30.2875C21.494 30.5093 21.2072 30.7327 20.9231 30.9546C22.9993 31.3115 23.4852 29.0237 23.491 27.3842C23.2284 27.6531 22.963 27.9235 22.7003 28.1923C24.2949 28.0007 26.0474 27.6773 27.4205 26.7961C28.1827 26.3059 27.6997 25.1612 26.8266 25.3535C25.3433 25.6803 24.0166 26.3883 22.4889 26.6184C22.1485 26.6693 21.8928 27.0729 21.903 27.3988C21.9187 28.0012 22.0135 29.5782 21.0993 29.6106C20.6207 29.6267 20.3883 30.0366 20.4475 30.4765C20.774 32.849 20.4448 35.4584 20.5351 37.857C20.5746 38.8783 20.3431 42.1052 21.4028 42.7834C21.5558 42.8817 21.7379 42.6509 21.6003 42.5292L21.5982 42.5286Z" fill="#C68A23"/>
<path d="M30.1823 76.8187C29.9972 75.1212 30.0045 73.3492 29.6245 71.6843C29.516 71.2083 28.7511 71.3105 28.7799 71.8041C28.8807 73.5202 29.5257 75.1783 29.7721 76.8761C29.807 77.1101 30.2076 77.0547 30.1823 76.8187Z" fill="#C68A23"/>
<path d="M30.2548 76.4211C30.0815 75.7719 31.5932 76.1013 31.9909 76.1758C32.8339 76.3329 33.7811 76.8549 33.5004 77.8683C33.3291 78.4825 33.9399 79.1756 34.5775 78.9476C36.8613 78.1317 39.1138 77.8987 41.4518 77.3632C42.1989 77.1921 42.2609 75.9023 41.4511 75.7907C38.8434 75.4266 36.2555 76.1748 33.9125 77.3301C34.3508 77.5828 34.7892 77.8355 35.2276 78.0882C35.1902 75.3141 32.0063 74.0347 29.8026 75.6101C29.6683 75.7047 29.6332 75.8443 29.6995 75.995C29.7685 76.1693 29.837 76.3458 29.906 76.5202C29.9832 76.7402 30.3195 76.6539 30.2569 76.4217L30.2548 76.4211Z" fill="#C68A23"/>
<path d="M24.3131 64.6076C25.8597 63.8921 26.4087 62.0636 26.1501 60.4793C25.8963 58.9193 24.1463 57.3617 22.5243 57.9607C21.7939 58.2303 21.7073 59.3072 22.5251 59.5332C23.5074 59.8056 24.2242 59.773 24.5566 60.921C24.8636 61.9773 24.4475 63.0897 23.7927 63.9158C23.4814 64.3068 23.8499 64.8204 24.3137 64.6055L24.3131 64.6076Z" fill="#C68A23"/>
<path d="M24.351 64.6612C26.3274 65.2297 28.344 65.8686 30.3653 66.2865C34.055 67.0505 37.3445 68.1817 40.767 69.7566C41.9004 70.278 42.9076 68.6112 41.7654 68.0462C38.1717 66.2719 34.5576 65.1408 30.5766 64.6425C29.2921 64.4816 25.1495 62.9178 24.2178 64.3367C24.1372 64.4595 24.2182 64.6233 24.3489 64.6606L24.351 64.6612Z" fill="#C68A23"/>
<path d="M40.974 68.4758C41.1912 68.2751 41.0863 67.9467 41.0993 67.6866C41.1285 67.1627 41.3211 66.6299 41.4621 66.1291C41.6043 65.624 41.7823 65.1376 42.0648 64.6931C42.3901 64.182 43.3206 64.0463 43.6438 64.534C44.2432 65.4395 45.7147 64.8941 45.4232 63.78C44.8224 61.4738 41.5647 62.1296 40.6148 63.837C40.0153 64.914 39.4849 67.4099 40.3555 68.4637C40.4839 68.6195 40.7254 68.6247 40.8905 68.5337C40.9195 68.5185 40.9475 68.4985 40.9704 68.4726L40.974 68.4758Z" fill="#C68A23"/>
<path d="M45.0924 63.0308C46.2509 60.6047 46.9633 57.9375 47.7721 55.3764C48.7111 52.4056 49.6252 49.4258 50.5388 46.4482C51.4524 43.4705 52.3666 40.4907 53.2802 37.5131C54.1779 34.5862 55.4026 31.5658 55.8945 28.544C56.0115 27.8281 54.9777 27.2394 54.6299 28.0126C53.5175 30.4786 52.9336 33.242 52.1641 35.8343C51.2759 38.8187 50.3977 41.8082 49.5159 44.7943C48.6341 47.7805 47.7411 50.7659 46.8846 53.7589C46.0351 56.7262 44.9776 59.741 44.5477 62.8024C44.504 63.1092 44.9328 63.3639 45.0924 63.0308Z" fill="#C68A23"/>
<path d="M54.7949 30.2252C56.9252 28.4239 57.0342 24.6462 57.2652 22.0815C57.3324 21.3226 56.3751 20.8552 55.7769 21.2244C55.0264 21.6879 54.5946 21.0886 54.3416 20.3814C53.9991 19.4233 54.2456 18.9438 54.9681 18.3903C55.6128 17.8984 55.3881 16.9924 54.5729 16.9092C50.9602 16.544 52.365 25.7168 56.7675 22.9566C56.2723 22.6704 55.7744 22.3857 55.2792 22.0994C55.0635 24.7255 54.7992 27.2193 53.932 29.7189C53.7457 30.2535 54.4363 30.5302 54.7976 30.2236L54.7949 30.2252Z" fill="#C68A23"/>
<path d="M39.6563 14.1638C40.6285 14.186 41.5408 14.7788 42.4186 15.1194C43.6497 15.5983 44.9308 15.9415 46.2003 16.3023C48.6145 16.9905 51.2638 17.7072 53.7765 17.8327C54.6116 17.8754 54.9118 16.6449 54.1994 16.2546C52.9688 15.5788 51.4933 15.5547 50.1247 15.3691C48.5522 15.1563 46.9928 14.7591 45.4463 14.4157C44.1615 14.1288 42.8812 13.859 41.6069 13.5245C40.8673 13.3286 40.1061 13.2897 39.5125 13.8113C39.3701 13.9359 39.4877 14.1576 39.6569 14.1617L39.6563 14.1638Z" fill="#C68A23"/>
<path d="M33.73 16.3252C34.3792 18.154 36.957 17.9096 38.3437 17.2658C39.9306 16.5267 41.3693 14.2238 40.1799 12.5643C39.5984 11.753 38.3365 12.2193 38.5546 13.2519C38.6627 13.7713 38.8808 14.1942 38.6525 14.7243C38.4326 15.2315 38.0106 15.5951 37.552 15.8756C37.0631 16.1755 36.4774 16.3371 35.9124 16.3622C35.2594 16.3935 34.7555 16.0889 34.1624 15.8887C33.9208 15.8079 33.6443 16.0777 33.7327 16.3237L33.73 16.3252Z" fill="#C68A23"/>
<path d="M23.2667 57.8749C25.948 50.9934 27.8424 43.7542 29.9823 36.6909C31.0234 33.2547 32.0638 29.8205 33.1027 26.3837C34.194 22.7684 35.5888 19.1129 36.3338 15.4094C36.5359 14.4093 35.2238 14.1058 34.8558 15.0134C33.5163 18.3101 32.7043 21.8994 31.6825 25.3064C30.5857 28.9592 29.4932 32.6132 28.3985 36.2666C26.2856 43.3302 23.8677 50.4061 22.3075 57.6179C22.1685 58.2636 23.0372 58.4689 23.2688 57.8755L23.2667 57.8749Z" fill="#C68A23"/>
</svg>
