<svg width="29" height="29" viewBox="0 0 29 29" fill="none" xmlns="http://www.w3.org/2000/svg">
<path d="M28.7713 0.805176V28.7713H0.805176V0.805176H28.7713Z" fill="white" fill-opacity="0.01"/>
<path fill-rule="evenodd" clip-rule="evenodd" d="M15.8911 3.71266C15.5228 3.71547 15.155 3.71827 14.7882 3.71827C14.4214 3.71827 14.0536 3.71547 13.6853 3.71266C12.0997 3.70059 10.5043 3.68844 8.93589 3.8993C7.53741 4.08732 6.35992 4.48956 5.42474 5.42474C4.48956 6.35992 4.08732 7.53741 3.8993 8.93589C3.68844 10.5043 3.70059 12.0997 3.71266 13.6853C3.71547 14.0536 3.71827 14.4214 3.71827 14.7882C3.71827 15.155 3.71547 15.5228 3.71266 15.8911C3.70059 17.4767 3.68844 19.0721 3.8993 20.6405C4.08732 22.039 4.48956 23.2164 5.42474 24.1516C6.35992 25.0868 7.53741 25.489 8.93588 25.6771C10.5043 25.8879 12.0997 25.8758 13.6853 25.8637C14.0536 25.8609 14.4214 25.8581 14.7882 25.8581C15.155 25.8581 15.5228 25.8609 15.8911 25.8637C17.4767 25.8758 19.0721 25.8879 20.6405 25.6771C22.039 25.489 23.2164 25.0868 24.1516 24.1516C25.0868 23.2164 25.489 22.039 25.6771 20.6405C25.8879 19.0721 25.8758 17.4767 25.8637 15.8911C25.8609 15.5228 25.8581 15.155 25.8581 14.7882C25.8581 14.4214 25.8609 14.0536 25.8637 13.6853C25.8758 12.0997 25.8879 10.5043 25.6771 8.93589C25.489 7.53741 25.0868 6.35992 24.1516 5.42474C23.2164 4.48956 22.039 4.08732 20.6405 3.8993C19.0721 3.68844 17.4767 3.70059 15.8911 3.71266ZM21.0012 12.5217C21.3582 11.9862 21.2135 11.2627 20.6781 10.9058C20.1426 10.5488 19.4191 10.6935 19.0621 11.2289C18.6495 11.777 18.2178 12.3 17.7119 12.767C17.1259 13.3079 16.5328 13.7132 15.9539 13.9535L15.9455 11.7394C15.8781 11.1599 15.3856 10.7101 14.788 10.7101C14.1569 10.7465 13.6228 11.2126 13.6228 11.8753V16.971C11.3527 16.3423 10.127 14.1401 10.127 11.8753C10.127 11.2318 9.60532 10.7101 8.96177 10.7101C8.31822 10.7101 7.79652 11.2318 7.79652 11.8753C7.79652 16.1074 10.7208 19.4495 14.788 19.4495C15.4316 19.4495 15.9533 18.9278 15.9533 18.2842L15.954 16.4624C17.5049 16.5868 19.0108 17.6829 19.5721 18.8053C19.8599 19.3809 20.5598 19.6143 21.1354 19.3264C21.711 19.0386 21.9444 18.3387 21.6565 17.7631C21.0992 16.6484 20.0596 15.6056 18.7805 14.9245C18.9531 14.7838 19.1238 14.6353 19.2927 14.4794C20.0804 13.7523 20.663 13.0291 21.0012 12.5217Z" fill="#BF831B"/>
</svg>
