<svg width="29" height="29" viewBox="0 0 29 29" fill="none" xmlns="http://www.w3.org/2000/svg">
<path d="M28.3377 0.805176V28.7713H0.371582V0.805176H28.3377Z" fill="white" fill-opacity="0.01"/>
<path fill-rule="evenodd" clip-rule="evenodd" d="M14.3544 5.75732C11.7742 5.75732 9.0276 5.93323 7.07356 6.09181C5.07002 6.2544 3.46316 7.80358 3.26759 9.81851C3.12801 11.2565 2.99316 13.0839 2.99316 14.788C2.99316 16.4922 3.12801 18.3196 3.26759 19.7576C3.46316 21.7725 5.07002 23.3217 7.07356 23.4843C9.0276 23.6429 11.7742 23.8188 14.3544 23.8188C16.9346 23.8188 19.6812 23.6429 21.6352 23.4843C23.6388 23.3217 25.2456 21.7725 25.4412 19.7576C25.5808 18.3196 25.7156 16.4922 25.7156 14.788C25.7156 13.0839 25.5808 11.2565 25.4412 9.81851C25.2456 7.80357 23.6388 6.2544 21.6352 6.09181C19.6812 5.93323 16.9346 5.75732 14.3544 5.75732ZM12.1947 11.3344C12.6701 11.0599 13.1512 11.3106 14.1134 11.812C14.5247 12.0264 14.9802 12.2743 15.4693 12.5567C15.9611 12.8407 16.4059 13.1126 16.7988 13.3629C17.71 13.9431 18.1656 14.2332 18.1653 14.7822C18.1651 15.3313 17.7094 15.6209 16.798 16.2001C16.4059 16.4492 15.9614 16.7207 15.4681 17.0055C14.9765 17.2893 14.5206 17.5378 14.1099 17.7523C13.1506 18.2532 12.6709 18.5037 12.1952 18.2293C11.7195 17.9549 11.6961 17.4138 11.6492 16.3317C11.6291 15.8669 11.616 15.3473 11.616 14.7821C11.616 14.2182 11.6291 13.6996 11.6491 13.2357C11.6959 12.1511 11.7194 11.6088 12.1947 11.3344Z" fill="#BF831B"/>
</svg>
