<svg width="26" height="26" viewBox="0 0 26 26" fill="none" xmlns="http://www.w3.org/2000/svg">
<path d="M25.8681 0.0761719V25.4999H0.444336V0.0761719H25.8681Z" fill="white" fill-opacity="0.01"/>
<path fill-rule="evenodd" clip-rule="evenodd" d="M13.1564 2.72467C15.5354 2.72467 16.9872 2.7105 18.1883 3.1182C20.3712 3.85922 22.0854 5.57338 22.8264 7.75637C23.2341 8.95741 23.22 10.4092 23.22 12.7882C23.22 15.1673 23.2341 16.619 22.8264 17.8201C22.0854 20.0031 20.3712 21.7172 18.1883 22.4583C16.9872 22.866 15.5355 22.8518 13.1564 22.8518C10.7773 22.8518 9.32557 22.866 8.12453 22.4583C5.94155 21.7172 4.22738 20.0031 3.48636 17.8201C3.07866 16.619 3.09283 15.1673 3.09283 12.7882C3.09283 10.4092 3.07866 8.95741 3.48636 7.75637C4.22738 5.57338 5.94155 3.85922 8.12453 3.1182C9.32557 2.7105 10.7773 2.72467 13.1564 2.72467ZM16.864 8.02128C16.864 7.43623 17.3383 6.96196 17.9233 6.96196H17.9254C18.5105 6.96196 18.9847 7.43623 18.9847 8.02128C18.9847 8.60633 18.5105 9.0806 17.9254 9.0806H17.9233C17.3383 9.0806 16.864 8.60633 16.864 8.02128ZM13.1564 10.6696C11.9863 10.6696 11.0377 11.6181 11.0377 12.7882C11.0377 13.9583 11.9863 14.9069 13.1564 14.9069C14.3265 14.9069 15.275 13.9583 15.275 12.7882C15.275 11.6181 14.3265 10.6696 13.1564 10.6696ZM8.9191 12.7882C8.9191 10.448 10.8162 8.55094 13.1564 8.55094C15.4966 8.55094 17.3937 10.448 17.3937 12.7882C17.3937 15.1284 15.4966 17.0255 13.1564 17.0255C10.8162 17.0255 8.9191 15.1284 8.9191 12.7882Z" fill="#BF831B"/>
</svg>
