<svg width="34" height="34" viewBox="0 0 34 34" fill="none" xmlns="http://www.w3.org/2000/svg">
<g id="map_1962444 1" clip-path="url(#clip0_925_1681)">
<path id="Vector" d="M24.8682 23.3542C24.2879 22.5628 22.5585 20.204 21.9922 19.4308C21.0652 18.1657 20.2327 16.8892 20.2327 15.1875C20.2327 12.4218 22.2366 10.117 24.8682 9.64545V0.333008L17.9985 3.12259V32.8965L24.8682 30.1082V23.3542Z" fill="white"/>
<path id="Vector_2" d="M16.0064 3.12187L9.13184 0.332031V30.1069L16.0064 32.8957V3.12187Z" fill="white"/>
<path id="Vector_3" d="M7.14023 1.03418L0 3.93141V33.7048L7.14023 30.8088V1.03418Z" fill="white"/>
<path id="Vector_4" d="M26.8599 1.03223V9.64558C29.4915 10.1177 31.4953 12.4222 31.4953 15.1877C31.4953 16.888 30.6632 18.165 29.7358 19.4309C29.5223 19.7217 27.2645 22.8127 26.8599 23.358V30.8071L34.0001 33.7044V3.93076L26.8599 1.03223Z" fill="white"/>
<path id="Vector_5" d="M28.1291 18.2533C28.9075 17.1908 29.5034 16.2902 29.5034 15.188C29.5034 13.1808 27.8702 11.5479 25.863 11.5479C23.8565 11.5479 22.2241 13.1808 22.2241 15.188C22.2241 16.291 22.82 17.1913 23.5987 18.2541C24.0246 18.8357 25.1086 20.314 25.8663 21.348C26.2684 20.7993 27.9156 18.5444 28.1291 18.2533ZM25.8638 16.354C25.208 16.354 24.6762 15.8222 24.6762 15.1665C24.6762 14.5107 25.208 13.9789 25.8638 13.9789C26.5195 13.9789 27.0513 14.5107 27.0513 15.1665C27.0513 15.8222 26.5195 16.354 25.8638 16.354Z" fill="white"/>
</g>
<defs>
<clipPath id="clip0_925_1681">
<rect width="34" height="34" fill="white"/>
</clipPath>
</defs>
</svg>
