<svg width="41" height="42" viewBox="0 0 41 42" fill="none" xmlns="http://www.w3.org/2000/svg">
<g id="carbon:ruler-alt">
<path id="Vector" d="M37.6803 28.4417L13.2469 3.38609C13.0089 3.14203 12.7263 2.94841 12.4152 2.81631C12.1041 2.68421 11.7706 2.61621 11.4339 2.61621C11.0971 2.61621 10.7637 2.68421 10.4526 2.81631C10.1415 2.94841 9.85892 3.14203 9.62093 3.38609L3.31718 9.85671C2.83991 10.3485 2.57202 11.0139 2.57202 11.7073C2.57202 12.4008 2.83991 13.0661 3.31718 13.558L27.7506 38.6136C27.9901 38.8569 28.274 39.0494 28.5862 39.18C28.8984 39.3106 29.2327 39.3768 29.57 39.3748C30.2467 39.3754 30.8961 39.1017 31.3766 38.6136L37.6803 32.143C38.1576 31.6511 38.4255 30.9858 38.4255 30.2923C38.4255 29.5989 38.1576 28.9335 37.6803 28.4417ZM29.57 36.7498L5.12374 11.7073L11.4275 5.24984L16.2834 10.2242L13.4006 13.1248L15.2072 14.9755L18.09 12.0748L23.3816 17.4955L20.4987 20.4486L22.3181 22.3123L25.2009 19.3592L30.4925 24.7798L27.6097 27.733L29.4675 29.5836L32.3503 26.6305L35.8737 30.2923L29.57 36.7498Z" fill="#BF831B"/>
</g>
</svg>
