<svg width="49" height="67" viewBox="0 0 49 67" fill="none" xmlns="http://www.w3.org/2000/svg">
<g clip-path="url(#clip0_842_265)">
<path d="M10.8852 15.4343C11.7663 17.6705 12.4687 20.0502 13.7888 22.0786C15.0884 24.0748 17.5793 25.9012 19.6896 26.9432C20.9248 27.5521 21.8293 25.9246 20.7492 25.1285C20.5502 24.9675 20.3511 24.8095 20.1521 24.6485C19.9004 25.2602 19.6457 25.872 19.394 26.4808C21.8849 26.3461 24.3231 26.9345 26.811 26.8905C26.6295 26.2203 26.4481 25.55 26.2666 24.8797C25.4031 25.3831 24.326 26.2583 23.3103 25.7344C22.5142 25.3217 21.601 25.992 21.8146 26.8847C22.0839 27.997 22.3708 29.1034 22.7249 30.1922C23.1347 31.4479 24.8382 30.9122 24.6567 29.6595C24.487 28.515 24.0889 27.4555 23.7786 26.3432C23.2811 26.7266 22.7835 27.1101 22.2829 27.4935C24.0567 28.6555 25.7134 27.7013 27.3554 26.7442C28.2716 26.2086 27.8911 24.7158 26.811 24.7363C24.3231 24.7802 21.8849 24.1772 19.394 24.3353C18.5715 24.388 17.8281 25.5383 18.6359 26.1676C18.9871 26.4427 19.3208 26.6944 19.6896 26.9432C19.9589 26.3022 20.2282 25.6641 20.5004 25.0231C18.03 24.0104 15.7499 22.5293 14.2571 20.2668C13.1712 18.6189 12.6561 16.6841 11.374 15.1504C11.1896 14.9308 10.7799 15.165 10.8852 15.4343Z" fill="#CF8269"/>
<path d="M24.344 36.7608C24.0279 40.8 24.5313 44.7924 24.464 48.8288C24.4464 49.9879 26.2524 49.821 26.0709 48.6122C25.4914 44.6959 25.2338 40.7034 24.8562 36.7637C24.824 36.4359 24.3674 36.43 24.3411 36.7637L24.344 36.7608Z" fill="#CF8269"/>
<path d="M12.3927 55.0309C13.3674 55.2767 14.3128 54.3108 15.0651 53.8366C16.9413 52.6541 19.3209 52.0658 21.4664 51.5946C23.8343 51.0736 26.4598 50.8628 28.8073 51.5711C31.0757 52.2561 32.7353 54.4835 34.3042 56.1226C34.6203 55.3587 34.9364 54.5947 35.2525 53.8308C31.8484 53.5674 28.4853 52.9351 25.0666 52.8327C21.4957 52.7273 17.9745 53.5703 14.4182 53.7459C14.5089 54.4074 14.5967 55.0718 14.6875 55.7333C15.627 55.4055 16.5842 55.1714 17.5471 54.9196C18.6887 54.624 18.1735 53.0522 17.0759 53.2044C16.0573 53.3478 15.1294 53.462 14.1489 53.7781C13.0893 54.1206 13.2386 55.7977 14.4182 55.7655C17.9774 55.6689 21.4986 54.9313 25.0666 55.1099C28.4853 55.2797 31.8455 56.1782 35.2525 56.5119C36.4555 56.629 36.9824 54.984 36.2009 54.2201C34.5735 52.6219 32.9314 51.0384 30.8913 49.9789C28.7634 48.8754 26.2491 48.931 23.9338 49.1915C21.5659 49.4579 19.2565 50.1252 17.0613 51.0355C16.0924 51.4365 15.1441 51.896 14.2835 52.4961C13.704 52.9 13.0337 53.784 12.3927 54.0035C11.9185 54.1674 11.8571 54.8904 12.3927 55.0279V55.0309Z" fill="#CF8269"/>
<path d="M9.34581 12.9292C14.19 12.6277 19.0283 12.3906 23.8813 12.3496C28.7489 12.3087 33.637 12.4638 38.4899 12.0101C39.4383 11.9223 39.4675 10.5525 38.4899 10.5144C28.8864 10.1427 18.68 10.1456 9.20531 11.8901C8.61699 11.9984 8.75163 12.9702 9.34581 12.9321V12.9292Z" fill="#CF8269"/>
<path d="M41.2239 6.27299C36.0197 5.78711 30.7043 6.16762 25.4971 6.45446C20.2578 6.74131 15.0097 7.10133 9.80259 7.75112C8.83961 7.87113 8.77814 9.35219 9.80259 9.30536C15.0419 9.05949 20.2666 8.518 25.4971 8.12578C30.7306 7.73356 36.0051 7.67502 41.2239 7.13938C41.7771 7.08377 41.783 6.32568 41.2239 6.27592V6.27299Z" fill="#CF8269"/>
<path d="M9.48585 59.4416C8.67507 61.5227 18.9781 61.1422 19.7157 61.1597C24.0799 61.2476 28.444 61.1949 32.8052 61.1158C36.6747 61.0456 40.8837 61.4349 44.642 60.3753C45.564 60.1148 45.4147 58.5547 44.4108 58.6572C37.6611 59.345 30.8617 59.5001 24.0799 59.6875C21.027 59.7724 17.9624 59.6758 14.9125 59.7958C14.2422 59.8221 10.2381 60.2465 10.1152 59.4445C10.0595 59.0874 9.58829 59.1811 9.48292 59.4445L9.48585 59.4416Z" fill="#CF8269"/>
<path d="M2.9681 2.54466C6.08827 3.36129 9.51286 3.24714 12.7179 3.29982C16.2391 3.35836 19.7603 3.4169 23.2815 3.44325C30.2653 3.49301 37.451 3.9584 44.4085 3.30568C45.6964 3.18567 45.6964 1.42362 44.4085 1.30361C37.451 0.650892 30.2682 1.11336 23.2815 1.16604C19.7603 1.19239 16.2391 1.248 12.7179 1.30947C9.51286 1.36508 6.08827 1.248 2.9681 2.06463C2.72808 2.1261 2.72808 2.48319 2.9681 2.54759V2.54466Z" fill="#C68A23"/>
<path d="M3.80794 10.1141C6.64127 10.9073 9.83755 10.6995 12.7587 10.7961C16.3121 10.9131 19.8654 10.9512 23.4188 10.998C26.9722 11.0449 30.5256 11.0653 34.0789 11.0975C37.5884 11.1297 41.2501 11.399 44.7391 10.9951C46.1791 10.8283 46.1791 8.92279 44.7391 8.75302C41.5399 8.38129 38.1884 8.61253 34.9658 8.6418C31.4124 8.67107 27.8591 8.70912 24.3057 8.74131C20.7523 8.77351 17.196 8.80278 13.6456 8.91986C10.4464 9.02523 6.90763 8.7618 3.80794 9.63112C3.56793 9.69844 3.56793 10.0468 3.80794 10.1141Z" fill="#C68A23"/>
<path d="M43.7353 2.92235C44.8915 3.8063 45.4944 4.42975 45.2544 5.9313C45.0525 7.19576 44.0427 7.93044 43.5392 9.03099C43.1909 9.79201 43.7587 10.7579 44.669 10.5003C48.4478 9.44077 48.1404 2.39549 43.8992 2.31354C43.5421 2.30768 43.4953 2.74088 43.7353 2.92235Z" fill="#C68A23"/>
<path d="M5.42133 2.94273C3.60074 1.24214 1.6777 3.78863 1.25621 5.45409C0.641543 7.87472 1.96162 11.1676 4.88569 10.9217C6.09747 10.8193 6.27601 9.29138 5.16375 8.85819C3.72367 8.29913 3.18803 7.5264 3.30511 5.95168C3.38414 4.89211 4.00174 3.45788 5.22229 3.42861C5.46231 3.42275 5.61158 3.11835 5.42426 2.94273H5.42133Z" fill="#C68A23"/>
<path d="M4.97571 11.2262C4.13273 14.6625 4.50446 18.5554 4.61276 22.0648C4.73277 25.9841 4.9318 29.8975 5.07815 33.8167C5.35915 41.2689 4.49275 48.6742 4.50446 56.1234C4.50446 57.9118 7.25877 57.9118 7.27926 56.1234C7.35828 48.6742 8.22468 41.2747 7.93783 33.8167C7.78855 29.8946 7.47536 25.9782 7.18559 22.0648C6.92216 18.5232 7.00704 14.68 6.1348 11.2262C5.99138 10.6554 5.1162 10.6496 4.97571 11.2262Z" fill="#C68A23"/>
<path d="M42.1252 10.8108C41.2032 13.9456 41.5633 17.5721 41.3115 20.8153C40.9925 24.9013 41.3613 29.0108 41.1388 33.1057C40.9222 37.0806 40.7613 41.0613 40.5037 45.0332C40.3808 46.9124 40.2315 48.7856 40.1729 50.6648C40.1203 52.4005 40.5476 54.063 40.65 55.787C40.7554 57.5754 43.457 57.6076 43.4512 55.787C43.4482 54.3235 43.0648 52.9156 42.9858 51.4609C42.8833 49.6052 43.1146 47.6939 43.2375 45.8411C43.498 41.8955 43.6122 37.9294 43.7731 33.978C43.9283 30.1465 43.5712 26.4087 43.3839 22.589C43.1936 18.6873 42.4823 14.7856 42.658 10.881C42.6726 10.5678 42.2101 10.521 42.1252 10.8079V10.8108Z" fill="#C68A23"/>
<path d="M2.27988 57.5871C5.11907 58.7725 8.66952 58.31 11.6872 58.3452C15.3723 58.392 19.0399 58.3539 22.7191 58.6262C26.4159 58.9013 30.0541 59.0623 33.7627 59.033C36.9384 59.0096 40.5006 59.4984 43.5769 58.5676C44.9555 58.1491 44.7565 55.8689 43.2256 55.9801C36.4116 56.4748 29.5361 56.3929 22.7191 55.9362C19.0604 55.6904 15.346 55.7167 11.6872 55.9128C8.61976 56.0797 5.07809 55.8221 2.20964 57.0397C1.93742 57.1539 2.07792 57.5022 2.27988 57.5871Z" fill="#C68A23"/>
<path d="M4.21209 57.0137C0.143569 57.283 -1.83801 62.6247 2.25393 64.6356C3.49205 65.2444 5.00531 65.2883 6.35758 65.4054C8.51771 65.5956 10.6193 65.8708 12.797 65.8942C17.1319 65.944 21.4521 66.0288 25.7841 66.1576C30.0575 66.2864 34.3016 66.102 38.5663 65.8444C41.1157 65.6893 43.8612 65.944 46.355 65.341C51.0616 64.2024 47.8946 56.481 44.3676 55.8868C43.349 55.7141 42.4006 56.92 43.2846 57.7484C44.4115 58.805 45.3862 59.8734 45.8955 61.3661C46.6096 63.4502 43.4104 62.9994 42.146 62.9965C37.2667 62.9877 32.4108 63.5877 27.5168 63.5058C22.0463 63.415 16.5611 63.2921 11.0964 63.137C8.77235 63.0696 6.19952 62.8501 3.91354 62.3818C1.37291 61.8608 2.37394 58.2606 4.2882 57.5727C4.57504 57.4703 4.55163 56.9903 4.21209 57.0137Z" fill="#C68A23"/>
<path d="M6.44515 10.1282C5.60803 14.9753 6.49784 19.7551 8.9009 24.0695C10.2005 26.4023 12.0972 28.3341 14.1871 29.9616C15.1735 30.7314 16.2125 31.4251 17.3599 31.9314C18.8205 32.5724 18.6273 33.0583 18.8761 34.4984C19.2156 36.4449 22.1778 35.6194 21.8353 33.6818C21.4489 31.4953 21.4284 30.2308 19.0781 29.344C16.596 28.4073 14.4651 26.4462 12.7411 24.4764C9.43654 20.7005 7.98182 14.9402 7.02177 10.1312C6.96616 9.84724 6.49491 9.84138 6.44515 10.1312V10.1282Z" fill="#C68A23"/>
<path d="M40.9666 11.7239C41.0631 15.7017 37.6269 20.5693 35.2648 23.5812C33.3886 25.9726 30.5347 26.9619 28.1785 28.7503C26.3433 30.1435 25.8223 31.6743 25.9218 33.9223C26.0067 35.8453 28.9161 35.8658 28.922 33.9223C28.9249 32.5759 28.96 32.0402 30.005 31.1153C31.3192 29.9533 33.0578 29.2186 34.5242 28.2673C36.8922 26.7277 38.423 24.1022 39.6406 21.6318C40.6387 19.6122 44.2887 13.2138 41.3354 11.5132C41.1802 11.4225 40.9666 11.5366 40.9695 11.7239H40.9666Z" fill="#C68A23"/>
<path d="M19.9771 34.0364C19.3478 34.9964 18.6395 35.5203 17.7497 36.2082C16.3476 37.2912 15.1622 38.541 14.0324 39.9021C12.5543 41.6846 11.1347 43.5637 10.1395 45.6624C8.82526 48.4343 6.37829 53.7468 8.42426 56.6825C8.91307 57.3821 9.73848 57.6543 10.52 57.2328C10.7688 57.0982 10.9064 56.905 11.0703 56.6825C11.4069 56.2289 11.2869 55.6025 11.0703 55.1371C10.4439 53.8053 11.2195 51.8296 11.603 50.5271C12.0976 48.8587 12.7591 47.1991 13.6285 45.6887C14.9924 43.3237 16.8774 41.1899 18.7127 39.185C20.141 37.6249 21.0425 36.4248 20.7967 34.2647C20.7469 33.8373 20.2318 33.6559 19.9771 34.0422V34.0364Z" fill="#C68A23"/>
<path d="M27.4465 34.3551C26.5772 34.9434 26.8026 36.1698 27.4817 36.8606C29.071 38.4734 31.1111 39.6061 32.7766 41.1633C37.0237 45.1323 38.4023 51.2087 37.7554 56.7964C37.5447 58.6082 40.5156 58.9653 40.9078 57.2237C42.0318 52.2449 40.5185 46.6572 37.852 42.4043C36.6256 40.4491 34.8577 38.8744 33.0078 37.5338C31.3453 36.3279 29.4047 35.6869 27.7861 34.399C27.6924 34.3229 27.5607 34.279 27.4495 34.3551H27.4465Z" fill="#C68A23"/>
</g>
<defs>
<clipPath id="clip0_842_265">
<rect width="48.7257" height="65.2457" fill="white" transform="translate(0 0.958008)"/>
</clipPath>
</defs>
</svg>
