<svg width="35" height="36" viewBox="0 0 35 36" fill="none" xmlns="http://www.w3.org/2000/svg">
<path d="M23.437 22.5347L32.8345 32.1654L32.8039 26.7063C32.794 26.2512 33.1441 25.8553 33.5861 25.8654L34.1465 25.866C34.5884 25.8767 34.9539 26.1476 34.9631 26.6027L34.9861 34.735C34.9861 34.7429 34.956 34.7491 34.956 34.757L34.9992 35.1693C35.0036 35.3979 34.9517 35.6018 34.8086 35.7477C34.6671 35.8947 34.4688 35.9843 34.2487 35.9781L33.8494 35.9685C33.8418 35.9685 33.8357 35.9657 33.8275 35.9645L25.9929 36C25.5516 35.9899 25.1862 35.6136 25.1763 35.1579L25.1752 34.58C25.2424 34.0432 25.6515 33.7295 26.0929 33.7396L31.2565 33.7255L21.8923 24.1282C21.4657 23.6883 21.4657 22.9752 21.8923 22.5347C22.3189 22.0954 23.0105 22.0954 23.437 22.5347ZM11.5969 13.4653L2.19949 3.86452L2.22953 9.29377C2.23991 9.74944 1.88919 10.1454 1.44784 10.1353L0.853022 10.1341C0.410572 10.1229 0.0456537 9.85252 0.0363678 9.39684L0.0134259 1.26451C0.0134259 1.25663 0.0434688 1.2516 0.0434688 1.24258L0.000316297 0.831406C-0.00459981 0.602722 0.0472924 0.397694 0.190952 0.252903C0.331881 0.105328 0.53071 0.0163345 0.750296 0.021965L1.15014 0.0321045C1.15775 0.0321045 1.16322 0.0354843 1.17199 0.0354843L9.04101 0C9.48236 0.0112648 9.84728 0.387558 9.85763 0.842636L9.85872 1.4211C9.79157 1.95676 9.3824 2.27162 8.94105 2.26148L3.77753 2.27556L13.1411 11.8718C13.5677 12.3117 13.5677 13.0248 13.1411 13.4647C12.7145 13.9046 12.0234 13.9052 11.5968 13.4653H11.5969ZM34.9867 1.26508L34.9638 9.39748C34.9539 9.85315 34.5885 10.1235 34.1471 10.1348L33.5867 10.1359C33.1448 10.1461 32.7952 9.74955 32.8045 9.29444L32.8351 3.83533L23.4371 13.4654C23.0105 13.9053 22.319 13.9053 21.8924 13.4654C21.4658 13.0255 21.4658 12.3124 21.8924 11.8725L31.2559 2.27623L26.0929 2.26215C25.6515 2.27229 25.2424 1.95739 25.1752 1.42177L25.1763 0.843304C25.1867 0.387627 25.5521 0.0113373 25.9929 0.000667572L33.8281 0.0361214C33.8363 0.0361214 33.8423 0.0327759 33.85 0.0327759L34.2493 0.0226364C34.4694 0.0170059 34.6682 0.105999 34.8092 0.253574C34.9523 0.398895 35.0036 0.603355 34.9998 0.832039L34.9567 1.24322C34.9567 1.25219 34.9867 1.25726 34.9867 1.26511L34.9867 1.26508ZM3.77756 33.7246L8.94166 33.7386C9.38302 33.7285 9.79215 34.0428 9.85933 34.579L9.85824 35.1575C9.84728 35.6131 9.48233 35.99 9.04159 35.9995L1.17199 35.9646C1.16325 35.9657 1.15779 35.9686 1.15014 35.9686L0.750296 35.9782C0.530744 35.9843 0.331368 35.8948 0.190952 35.7478C0.0472924 35.6019 -0.00456567 35.398 0.000316297 35.1693L0.0434688 34.757C0.0434688 34.7492 0.0134259 34.7435 0.0134259 34.7351L0.0363678 26.6027C0.0462 26.1476 0.411119 25.8767 0.853022 25.866L1.44787 25.8655C1.88923 25.8553 2.23933 26.2513 2.2295 26.7064L2.19946 32.1357L11.5969 22.5349C12.0229 22.095 12.715 22.095 13.1417 22.5349C13.5683 22.9749 13.5683 23.6885 13.1417 24.1284L3.77756 33.7246Z" fill="#C68A23"/>
</svg>
