<svg width="41" height="36" viewBox="0 0 41 36" fill="none" xmlns="http://www.w3.org/2000/svg">
<g id="fa6-solid:stairs">
<path id="Vector" d="M9.11111 6.35H9.51111V6.75V13.5C9.51111 14.5171 10.3461 15.35 11.3889 15.35H18.2222H18.6222V15.75V22.5C18.6222 23.5171 19.4573 24.35 20.5 24.35H27.3333H27.7333V24.75V31.5C27.7333 32.5171 28.5684 33.35 29.6111 33.35H38.7222C39.765 33.35 40.6 32.5171 40.6 31.5C40.6 30.4829 39.765 29.65 38.7222 29.65H31.8889H31.4889V29.25V22.5C31.4889 21.4829 30.6539 20.65 29.6111 20.65H22.7778H22.3778V20.25V13.5C22.3778 12.4829 21.5427 11.65 20.5 11.65H13.6667H13.2667V11.25V4.5C13.2667 3.48294 12.4316 2.65 11.3889 2.65H2.27778C1.2344 2.65 0.400002 3.48286 0.400002 4.5C0.400002 5.51706 1.23503 6.35 2.27778 6.35H9.11111Z" fill="#C68A23" stroke="white" stroke-width="0.8"/>
</g>
</svg>
