<svg width="12" height="12" viewBox="0 0 12 12" fill="none" xmlns="http://www.w3.org/2000/svg">
<path fill-rule="evenodd" clip-rule="evenodd" d="M5.99984 0.166504C2.77818 0.166504 0.166504 2.77818 0.166504 5.99984C0.166504 6.98441 0.4109 7.91363 0.842824 8.72843C0.949755 8.93015 0.971643 9.12836 0.925354 9.28574L0.632755 10.2806C0.437334 10.945 1.05466 11.5623 1.71909 11.3669L2.71393 11.0743C2.87132 11.028 3.06952 11.0499 3.27124 11.1568C4.08605 11.5888 5.01526 11.8332 5.99984 11.8332C9.2215 11.8332 11.8332 9.2215 11.8332 5.99984C11.8332 2.77818 9.2215 0.166504 5.99984 0.166504ZM4.68049 7.31945C5.86028 8.49923 6.98686 8.65477 7.38467 8.66941C7.49851 8.6736 7.60303 8.65473 7.69152 8.63261L7.71192 8.62751C8.20328 8.50467 8.60895 8.15919 8.80846 7.69366C8.86471 7.56241 8.85069 7.40448 8.7564 7.28372C8.44544 6.88549 8.02795 6.5975 7.65694 6.34158L7.58267 6.29028C7.40025 6.16404 7.14932 6.20311 7.01494 6.38194L6.7134 6.84126C6.64676 6.94276 6.51406 6.97756 6.40996 6.91506C6.17922 6.77652 5.87826 6.56767 5.65527 6.34467C5.43225 6.12165 5.23447 5.83282 5.10817 5.61558C5.05087 5.51702 5.0812 5.39334 5.17272 5.32537L5.64559 4.97418C5.80625 4.83512 5.83451 4.59889 5.71625 4.42588C5.69049 4.38819 5.66431 4.3495 5.63762 4.31006L5.63762 4.31005C5.3931 3.94867 5.10604 3.5244 4.70808 3.23412C4.58752 3.14618 4.43502 3.1363 4.30911 3.19027C3.8418 3.39054 3.49499 3.79777 3.37168 4.29101L3.36733 4.30843C3.34521 4.39691 3.32634 4.50143 3.33053 4.61527C3.34517 5.01308 3.50071 6.13966 4.68049 7.31945Z" fill="#32B803"/>
</svg>
