<svg width="47" height="25" viewBox="0 0 47 25" fill="none" xmlns="http://www.w3.org/2000/svg">
<g clip-path="url(#clip0_897_2338)">
<path fill-rule="evenodd" clip-rule="evenodd" d="M18.5316 11.6992C17.9639 12.6682 17.7616 13.9701 16.8289 14.6055C15.0348 15.8113 12.8172 16.5411 10.656 16.7557C10.3519 16.7857 8.95316 16.8462 8.43611 16.7557C7.91906 16.6645 7.06778 16.3923 6.30748 16.3923C4.95795 16.3923 0.406504 16.5879 0.165126 18.2692C-0.250898 21.165 3.44668 21.085 5.69945 21.085C7.98464 21.085 10.2794 20.9031 12.5108 20.3281C14.6885 19.7667 15.9383 19.2448 17.3154 18.1784C17.5889 17.9666 18.4706 17.0282 18.4706 17.0282L18.5316 11.6992Z" fill="url(#paint0_linear_897_2338)"/>
<path fill-rule="evenodd" clip-rule="evenodd" d="M18.5322 11.3984C17.9648 12.3671 17.8619 12.651 16.9292 13.287C15.1351 14.4919 14.5229 14.8086 12.3528 14.8895C10.5471 14.9573 8.3731 14.8307 6.05877 15.023C4.13823 15.1833 0.59104 16.7076 0.1875 18.0937C1.28819 24.0106 16.4732 19.1062 18.4137 17.4058C18.6737 17.1777 18.4216 16.3546 18.4216 16.3546L18.5322 11.3984Z" fill="url(#paint1_linear_897_2338)"/>
<path fill-rule="evenodd" clip-rule="evenodd" d="M0.18124 18.0784C-0.176091 20.0921 0.0660045 21.9621 1.3323 22.5791C2.92637 23.3562 3.20104 23.225 5.01181 23.3362C9.46165 23.3362 11.7613 23.0701 15.8066 21.0048C17.1599 20.2983 18.0571 19.4103 18.9087 18.2493L18.4683 17.0312C15.4556 19.9767 0.966794 23.8693 0.18124 18.0784Z" fill="url(#paint2_linear_897_2338)"/>
<path fill-rule="evenodd" clip-rule="evenodd" d="M28.7021 16.609C28.7021 16.609 28.1285 18.0989 26.7817 18.4715C26.1678 18.641 23.7361 19.7188 23.8383 20.5831C23.8607 20.7774 25.4618 20.7095 25.634 21.5262L25.7961 22.2963L22.7156 22.3214C21.0682 20.681 22.1202 19.3287 23.0401 17.4782L25.2851 16.2115L26.0583 15.4414L28.7021 16.609Z" fill="url(#paint3_linear_897_2338)"/>
<path fill-rule="evenodd" clip-rule="evenodd" d="M39.1953 19.7529C39.3087 21.7566 39.4383 23.2299 40.2179 23.3172C40.865 23.39 41.6131 23.2907 43.224 23.3168L43.2987 22.6585C43.1113 21.6277 41.8621 22.5351 41.4406 21.2928C41.3351 20.1252 41.4336 19.5411 41.8023 18.4614L41.9522 17.7166L41.6399 17.3438L39.1953 19.7529Z" fill="url(#paint4_linear_897_2338)"/>
<path fill-rule="evenodd" clip-rule="evenodd" d="M34.0437 14.3672C34.0801 16.4277 33.5984 22.7297 34.7793 24.14L34.9789 24.3389L38.172 24.3511C38.172 22.5661 36.2944 23.5341 36.3386 22.2154C38.3379 20.203 42.2756 17.9122 43.4605 16.0311C44.3831 14.5659 41.0908 15.2614 41.0908 15.2614L38.0974 15.2117L34.0437 14.3672Z" fill="url(#paint5_linear_897_2338)"/>
<path fill-rule="evenodd" clip-rule="evenodd" d="M40.2932 8.43233C40.2529 8.15522 40.2132 7.87797 40.1731 7.60057C39.0559 6.37919 38.701 6.55656 37.5704 5.62348C37.2484 5.35742 36.9789 5.03338 36.6839 4.73834L36.0705 3.96441L36.1275 3.26725L35.3672 2.57627C36.6537 0.980623 39.3194 0.949625 42.3558 1.11279C44.012 -0.434206 44.201 1.21483 44.5236 2.25769C45.4845 3.33441 46.4312 4.63688 46.4265 6.10853L46.3005 6.76694L44.7338 8.31523L42.9087 8.82841L41.3383 8.80818L40.2932 8.43233Z" fill="url(#paint6_linear_897_2338)"/>
<path fill-rule="evenodd" clip-rule="evenodd" d="M44.953 7.94976C44.3027 7.10135 44.0057 5.7963 42.8438 4.90168C40.6311 3.40864 38.0736 2.77937 35.4453 2.56641C35.4489 3.12335 35.5997 3.50063 35.9865 3.97865C36.5978 4.66189 37.4547 5.70317 38.2318 6.17502C38.4142 6.28537 39.36 7.04653 39.36 7.04653L40.2186 7.86696L40.2839 8.5875L43.7423 9.09279L44.953 7.94976Z" fill="url(#paint7_linear_897_2338)"/>
<path fill-rule="evenodd" clip-rule="evenodd" d="M44.9549 7.95138C44.3045 7.10297 43.9454 5.99409 42.7842 5.09919C40.6062 3.62997 39.5325 3.59725 37.0596 2.89938C33.7002 1.11244 35.8066 4.97836 37.352 6.5453C38.1449 7.34937 38.6978 7.59591 40.1592 8.06417L40.2239 8.78472L43.6824 9.29L44.9549 7.95138Z" fill="url(#paint8_linear_897_2338)"/>
<path fill-rule="evenodd" clip-rule="evenodd" d="M27.9955 4.64453C28.8599 4.69433 29.7247 4.74398 30.5892 4.79378C30.5892 4.79378 30.7641 4.69433 32.0861 5.34011C35.4635 6.98971 40.7314 10.8212 44.8326 7.25261C45.6041 6.58129 46.0758 5.90007 46.2297 4.91791C46.2297 4.91791 47.2278 8.17134 46.3298 11.0771C45.4318 13.9826 44.2844 16.1062 41.2414 18.3418C40.5919 18.8186 39.9109 19.2519 39.2458 19.7075C38.2481 19.4924 37.25 19.277 36.2525 19.0623C35.3959 18.888 34.5395 18.7142 33.6835 18.5405C31.5897 17.8046 29.6273 17.2134 27.5971 16.305C27.1066 16.0569 26.6156 15.8086 26.125 15.5601C26.4495 13.2916 26.7738 11.0237 27.0978 8.75527C27.0727 7.93556 27.0479 7.11614 27.0231 6.29643C27.347 5.74594 27.671 5.19516 27.9955 4.64453Z" fill="url(#paint9_linear_897_2338)"/>
<path fill-rule="evenodd" clip-rule="evenodd" d="M29.7731 4.59087L27.8275 4.36729C24.647 3.93275 20.4246 6.35399 18.5733 8.86277C16.154 12.1412 17.7988 13.8789 17.9746 18.0518C18.06 20.0841 17.5953 21.8812 18.3861 23.5407L18.76 23.9631L21.816 23.901L21.7787 23.2303L21.3295 22.9448L20.6309 22.5843L20.1571 22.3235C20.1571 22.3235 19.9078 22.2865 19.9078 22.1127C19.9078 21.4688 21.5861 20.0946 22.1152 19.8403C24.0277 18.9211 25.3663 18.1267 26.8047 16.0404C26.8047 16.0404 27.478 14.5254 27.8147 13.8051C28.1517 13.0849 28.3761 10.9616 28.1264 9.8191C27.7079 7.9007 27.0678 6.37236 28.825 5.10061L29.7731 4.59087Z" fill="url(#paint10_linear_897_2338)"/>
<path fill-rule="evenodd" clip-rule="evenodd" d="M34.0234 14.4794L34.0732 22.8987C34.0732 22.8987 34.2358 24.1722 34.8463 24.2831C35.4571 24.3942 36.3183 24.3427 36.3183 24.3427C36.069 23.969 35.8191 23.5953 35.57 23.2216C34.909 21.6891 35.9575 17.8515 38.2641 15.9071L38.8125 14.6405L38.1638 13.672L37.1161 13.5977L35.7693 14.7278L35.0456 14.7027L34.0234 14.4794Z" fill="url(#paint11_linear_897_2338)"/>
<path fill-rule="evenodd" clip-rule="evenodd" d="M34.0451 14.8366L34.0832 14.7617V18.7354L31.4609 17.7758L34.0451 14.8366Z" fill="url(#paint12_linear_897_2338)"/>
<path fill-rule="evenodd" clip-rule="evenodd" d="M33.8984 12.6992L33.9613 22.8968C33.9613 22.8968 34.1622 24.3113 34.8055 24.3274C35.4489 24.3439 36.2064 24.3409 36.2064 24.3409C35.9572 23.9672 35.7073 23.5935 35.4582 23.2198C35.0339 22.2707 35.2722 18.7931 37.753 16.5636C38.5139 16.0669 39.4368 13.8196 39.8732 13.1485L38.0895 13.2707L37.0418 13.1958L35.7947 12.9481L34.9205 12.9229L33.8984 12.6992Z" fill="url(#paint13_linear_897_2338)"/>
<path fill-rule="evenodd" clip-rule="evenodd" d="M30.0724 4.76172C29.7682 4.80118 29.4643 4.8405 29.1602 4.87982C28.8409 4.99262 28.522 5.10527 28.2028 5.21793C28.0922 5.33302 27.9818 5.44782 27.8713 5.56248C27.7301 5.83242 27.5889 6.1025 27.448 6.37258C27.4064 6.64309 27.3655 6.91388 27.3247 7.18425C27.3152 7.56583 27.3061 7.94741 27.2969 8.329C27.3768 8.55215 27.4567 8.77545 27.537 8.99874C27.537 8.99874 29.5601 12.1217 33.9333 13.0605C38.3065 13.9995 42.1545 13.8592 43.3628 12.1217C44.5716 10.3844 44.6736 7.53613 44.6736 7.53613C44.6736 7.53613 44.1408 8.34995 41.7741 9.14741C38.7524 10.1652 35.2671 7.81381 32.8494 5.90704C31.7763 5.2129 31.1282 4.80621 30.0724 4.76172Z" fill="url(#paint14_linear_897_2338)"/>
<path fill-rule="evenodd" clip-rule="evenodd" d="M30.1947 4.58594C29.8906 4.6254 29.636 4.82301 29.3319 4.86247C29.0127 4.97527 28.6939 5.08807 28.3747 5.20086C28.2641 5.31595 28.1537 5.43076 28.0431 5.54542C27.9019 5.81536 27.7606 6.08558 27.6196 6.35551C27.5787 6.62602 27.5375 6.89668 27.4966 7.16733C27.487 7.54891 27.4778 7.93035 27.4688 8.31179C27.5485 8.53509 27.6289 8.75838 27.709 8.98154C27.709 8.98154 29.7316 12.1042 34.1053 13.0431C38.4786 13.9819 42.1865 13.69 43.3944 11.9525C44.6031 10.2151 44.8455 7.51892 44.8455 7.51892C44.8455 7.51892 44.3828 7.83263 42.0153 8.62995C38.994 9.64784 35.439 7.79661 33.021 5.88998C31.9483 5.19584 31.251 4.63042 30.1947 4.58594Z" fill="url(#paint15_linear_897_2338)"/>
<path fill-rule="evenodd" clip-rule="evenodd" d="M30.2617 4.58866C28.2649 4.41717 26.1656 3.79077 24.404 5.19397C23.4205 6.77929 24.3954 9.14973 24.6286 10.9312C24.6286 10.9312 25.1773 13.2658 23.9052 14.7311C22.633 16.1965 21.0118 18.7545 21.0118 18.7545C20.696 19.2678 20.3798 19.7808 20.0638 20.2941C19.7856 20.9319 19.619 21.5317 19.7147 22.2807C19.8479 22.8107 19.9806 23.3406 20.1139 23.8702C20.9059 23.9629 21.4127 23.9517 22.2094 23.9201C23.127 23.1894 20.9269 22.2697 20.4631 22.1319C20.7045 21.1139 20.8956 20.5671 22.1593 20.0459C26.8589 17.387 29.2764 14.458 28.2457 8.8696C28.129 8.1248 27.8382 7.59053 27.8964 6.63463C28.13 5.40938 29.291 5.17847 30.2617 4.58866Z" fill="url(#paint16_linear_897_2338)"/>
<path fill-rule="evenodd" clip-rule="evenodd" d="M30.1681 4.61593C28.1707 4.44444 26.0713 3.81818 24.3103 5.22139C23.3267 6.80656 24.3016 9.17728 24.5346 10.9583C24.5346 10.9583 25.0836 13.2926 23.8114 14.7578C22.5393 16.2232 20.9177 18.7816 20.9177 18.7816C20.6017 19.2946 20.2861 19.8084 19.97 20.3213C19.6914 20.9586 19.5253 21.5592 19.621 22.3084C19.7537 22.8379 19.887 23.368 20.0201 23.8979C20.8117 23.9906 21.3184 23.979 22.115 23.9474C23.0327 23.2171 20.833 22.2973 20.3691 22.1596C20.6099 21.1407 20.8012 20.5944 22.0655 20.0729C26.7653 17.4145 29.1825 14.4849 28.1517 8.89716C28.0352 8.15207 27.7443 7.61809 27.8027 6.66176C28.0365 5.43679 29.1973 5.20603 30.1681 4.61593Z" fill="url(#paint17_linear_897_2338)"/>
<path fill-rule="evenodd" clip-rule="evenodd" d="M35.8033 3.41016L38.0322 4.27435C37.4995 5.01614 36.4707 6.54778 35.3281 5.91018L35.8033 3.41016Z" fill="#EF7D22"/>
<path fill-rule="evenodd" clip-rule="evenodd" d="M0.735667 17.7595C2.92959 15.1956 8.60527 16.0315 11.4758 15.8082C13.4117 15.6579 15.5861 15.2233 17.1294 13.9727C15.7388 15.3951 13.3974 15.8575 11.4984 16.0423C8.85397 16.2999 3.06305 15.5993 1.06688 17.9759C1.00689 18.067 0.884483 18.0922 0.792926 18.0326C0.701082 17.9728 0.675538 17.8508 0.735667 17.7595Z" fill="#9F3F22"/>
<path fill-rule="evenodd" clip-rule="evenodd" d="M1.9419 18.7558C2.82203 17.1466 11.3502 17.587 12.864 17.3068C14.8424 16.9407 15.7367 16.3649 17.3162 15.2734C15.7649 16.5344 14.9817 17.0915 12.9087 17.5225C11.6756 17.7789 3.01203 17.6912 2.3133 18.8921C2.27584 18.9943 2.16204 19.0468 2.05943 19.0091C1.95683 18.9716 1.90416 18.8582 1.9419 18.7558Z" fill="#9F3F22"/>
<path fill-rule="evenodd" clip-rule="evenodd" d="M3.09375 20.0016C5.97937 19.2925 5.54282 19.1783 8.80487 19.1103C12.5693 19.0319 14.3811 18.4516 17.6456 16.7891C14.5748 18.6909 12.46 19.2832 8.79238 19.4198C5.57669 19.5401 6.00994 19.6506 3.16191 20.3902C3.05428 20.4087 2.95182 20.3373 2.93259 20.2296C2.91408 20.1227 2.98612 20.0205 3.09375 20.0016Z" fill="#9F3F22"/>
<path fill-rule="evenodd" clip-rule="evenodd" d="M11.815 15.4895C10.6012 17.0662 11.3684 18.1714 12.6348 19.292C10.9485 18.3021 10.3006 16.9567 11.5215 15.2251C11.5951 15.1443 11.7203 15.1381 11.8014 15.2111C11.8823 15.2843 11.8885 15.4093 11.815 15.4895Z" fill="#9F3F22"/>
<path fill-rule="evenodd" clip-rule="evenodd" d="M15.9251 14.4794C15.5104 15.996 15.9873 16.3935 16.9747 17.5283C15.6505 16.6389 15.2096 15.9439 15.5453 14.3678C15.5761 14.2631 15.6863 14.2039 15.7912 14.2347C15.8963 14.2651 15.9563 14.3748 15.9251 14.4794Z" fill="#9F3F22"/>
<path fill-rule="evenodd" clip-rule="evenodd" d="M9.1054 15.5092C7.98734 17.1961 8.72009 18.9329 10.1064 20.133C8.24967 19.1949 7.75816 16.946 8.81193 15.2444C8.88555 15.1637 9.01069 15.1578 9.09177 15.2307C9.17271 15.3043 9.17888 15.4284 9.1054 15.5092Z" fill="#9F3F22"/>
<path fill-rule="evenodd" clip-rule="evenodd" d="M6.48569 15.6171C5.28325 17.6248 6.04914 18.8756 7.27741 20.5248C5.62565 19.0053 5.01116 17.4776 6.15892 15.3947C6.22092 15.3044 6.34405 15.2815 6.43417 15.3433C6.52429 15.4047 6.54754 15.5273 6.48569 15.6171Z" fill="#9F3F22"/>
<path fill-rule="evenodd" clip-rule="evenodd" d="M3.74507 16.0887C2.85045 18.4877 2.98491 19.1561 5.17597 20.7226C2.65428 19.4265 2.57147 18.3813 3.36894 15.9797C3.40295 15.8879 3.51488 15.8381 3.61893 15.8681C3.72268 15.8982 3.77908 15.997 3.74507 16.0887Z" fill="#9F3F22"/>
<path fill-rule="evenodd" clip-rule="evenodd" d="M13.9915 15.1566C13.4777 16.8958 13.9099 16.9908 14.8027 18.5947C13.4998 16.9962 13.1583 16.9852 13.6129 15.0989C13.6406 15.0062 13.7476 14.9438 13.8523 14.9594C13.9569 14.9754 14.0192 15.064 13.9915 15.1566Z" fill="#9F3F22"/>
</g>
<defs>
<linearGradient id="paint0_linear_897_2338" x1="0.132708" y1="16.3924" x2="18.5316" y2="16.3924" gradientUnits="userSpaceOnUse">
<stop stop-color="#D65D2D"/>
<stop offset="0.44" stop-color="#F9A452"/>
<stop offset="1" stop-color="#D15D31"/>
</linearGradient>
<linearGradient id="paint1_linear_897_2338" x1="0.187428" y1="16.165" x2="18.5321" y2="16.165" gradientUnits="userSpaceOnUse">
<stop stop-color="#CA6428"/>
<stop offset="0.45" stop-color="#EF8622"/>
<stop offset="1" stop-color="#96251F"/>
</linearGradient>
<linearGradient id="paint2_linear_897_2338" x1="0.0312903" y1="20.1838" x2="18.9086" y2="20.1838" gradientUnits="userSpaceOnUse">
<stop stop-color="#AD4C25"/>
<stop offset="1" stop-color="#BE2A26"/>
</linearGradient>
<linearGradient id="paint3_linear_897_2338" x1="21.8515" y1="18.8814" x2="28.7021" y2="18.8814" gradientUnits="userSpaceOnUse">
<stop stop-color="#89181A"/>
<stop offset="1" stop-color="#982620"/>
</linearGradient>
<linearGradient id="paint4_linear_897_2338" x1="39.1953" y1="20.344" x2="43.2987" y2="20.344" gradientUnits="userSpaceOnUse">
<stop stop-color="#89181A"/>
<stop offset="1" stop-color="#982620"/>
</linearGradient>
<linearGradient id="paint5_linear_897_2338" x1="34.5063" y1="19.9197" x2="42.8286" y2="17.0057" gradientUnits="userSpaceOnUse">
<stop stop-color="#E36E25"/>
<stop offset="1" stop-color="#FFD219"/>
</linearGradient>
<linearGradient id="paint6_linear_897_2338" x1="35.5936" y1="3.33919" x2="46.0895" y2="5.34139" gradientUnits="userSpaceOnUse">
<stop stop-color="#F78F21"/>
<stop offset="0.43" stop-color="#EB7B23"/>
<stop offset="1" stop-color="#A04122"/>
</linearGradient>
<linearGradient id="paint7_linear_897_2338" x1="34.9882" y1="4.96296" x2="44.9456" y2="6.86244" gradientUnits="userSpaceOnUse">
<stop stop-color="#F78F21"/>
<stop offset="0.53" stop-color="#F79859"/>
<stop offset="1" stop-color="#9F3F22"/>
</linearGradient>
<linearGradient id="paint8_linear_897_2338" x1="34.927" y1="5.01903" x2="44.9028" y2="6.92202" gradientUnits="userSpaceOnUse">
<stop stop-color="#F78F21"/>
<stop offset="0.42" stop-color="#F47822"/>
<stop offset="1" stop-color="#8E331D"/>
</linearGradient>
<linearGradient id="paint9_linear_897_2338" x1="26.1249" y1="12.176" x2="46.7045" y2="12.176" gradientUnits="userSpaceOnUse">
<stop stop-color="#A13E23"/>
<stop offset="0.5" stop-color="#EE8322"/>
<stop offset="1" stop-color="#FED611"/>
</linearGradient>
<linearGradient id="paint10_linear_897_2338" x1="17.7156" y1="19.0717" x2="28.4319" y2="7.3064" gradientUnits="userSpaceOnUse">
<stop stop-color="#EF4536"/>
<stop offset="0.44" stop-color="#F78E21"/>
<stop offset="1" stop-color="#EB7F23"/>
</linearGradient>
<linearGradient id="paint11_linear_897_2338" x1="33.648" y1="22.884" x2="37.4373" y2="14.2426" gradientUnits="userSpaceOnUse">
<stop stop-color="#D97827"/>
<stop offset="0.5" stop-color="#F2CDAC"/>
<stop offset="1" stop-color="#F2A31E"/>
</linearGradient>
<linearGradient id="paint12_linear_897_2338" x1="32.7846" y1="18.2264" x2="34.715" y2="16.0297" gradientUnits="userSpaceOnUse">
<stop stop-color="#C46128"/>
<stop offset="0.475" stop-color="#C15E28"/>
<stop offset="0.8357" stop-color="#B95527"/>
<stop offset="1" stop-color="#B44E26"/>
</linearGradient>
<linearGradient id="paint13_linear_897_2338" x1="33.8985" y1="18.5201" x2="39.8733" y2="18.5201" gradientUnits="userSpaceOnUse">
<stop stop-color="#D46E28"/>
<stop offset="1" stop-color="#F39F20"/>
</linearGradient>
<linearGradient id="paint14_linear_897_2338" x1="27.4322" y1="8.60492" x2="43.9347" y2="10.0843" gradientUnits="userSpaceOnUse">
<stop stop-color="#7E3219"/>
<stop offset="0.5" stop-color="#FFEBC1"/>
<stop offset="1" stop-color="#FFCC16"/>
</linearGradient>
<linearGradient id="paint15_linear_897_2338" x1="27.6254" y1="8.5027" x2="44.1035" y2="9.97991" gradientUnits="userSpaceOnUse">
<stop stop-color="#A34724"/>
<stop offset="0.47" stop-color="#EB7B23"/>
<stop offset="1" stop-color="#F6B619"/>
</linearGradient>
<linearGradient id="paint16_linear_897_2338" x1="22.2037" y1="23.0841" x2="27.4957" y2="5.17508" gradientUnits="userSpaceOnUse">
<stop stop-color="#F05325"/>
<stop offset="0.63" stop-color="#F6D41D"/>
<stop offset="1" stop-color="#F18421"/>
</linearGradient>
<linearGradient id="paint17_linear_897_2338" x1="22.1099" y1="23.1116" x2="27.402" y2="5.20214" gradientUnits="userSpaceOnUse">
<stop stop-color="#F05325"/>
<stop offset="0.63" stop-color="#F6D41D"/>
<stop offset="1" stop-color="#F18421"/>
</linearGradient>
<clipPath id="clip0_897_2338">
<rect width="46.7802" height="24" fill="white" transform="translate(0 0.425781)"/>
</clipPath>
</defs>
</svg>
