<svg width="328" height="86" viewBox="0 0 328 86" fill="none" xmlns="http://www.w3.org/2000/svg">
<path d="M90.368 21.56L87.272 19.688V17.6H115.208V19.688L112.472 21.56V63.536H116.936L117.44 75.416H113.696L111.536 68H86.192L84.032 75.416H80.288L80.72 63.536C84.104 63.896 86.048 63.176 86.48 58.856L90.368 21.56ZM91.88 58.064C91.664 60.368 91.592 62.096 89.432 63.32V63.536H105.2V21.92H95.408L91.88 58.064ZM147.751 56.624C147.751 63.968 142.567 68.72 134.575 68.72C126.583 68.72 121.471 63.896 121.471 56.624V33.944C121.471 26.672 126.583 21.848 134.575 21.848C142.567 21.848 147.751 26.6 147.751 33.944V56.624ZM128.527 56.624C128.527 61.592 130.399 64.184 134.575 64.184C138.751 64.184 140.695 60.728 140.695 56.624V33.944C140.695 29.768 138.751 26.384 134.575 26.384C130.399 26.384 128.527 28.904 128.527 33.944V56.624ZM189.307 64.04L192.043 66.056V68H179.587V66.056L182.323 64.04V33.584L182.539 27.248C182.467 27.248 182.323 27.248 182.251 27.248L175.411 67.496H169.723C168.283 67.496 167.635 66.92 167.419 65.624C165.403 52.736 163.459 40.568 161.155 27.752H160.939L161.155 35.96V64.112L163.819 65.912V68H153.739V65.912L156.331 64.112V26.312L153.883 24.512V22.568H160.219C165.259 22.568 166.771 22.136 167.635 25.736C169.939 38.48 171.235 46.76 172.531 59.432H172.675L178.147 25.376C178.651 22.856 179.515 22.568 182.035 22.568H191.755V24.512L189.307 26.312V64.04ZM224.15 56.624C224.15 63.968 218.966 68.72 210.974 68.72C202.982 68.72 197.87 63.896 197.87 56.624V33.944C197.87 26.672 202.982 21.848 210.974 21.848C218.966 21.848 224.15 26.6 224.15 33.944V56.624ZM204.926 56.624C204.926 61.592 206.798 64.184 210.974 64.184C215.15 64.184 217.094 60.728 217.094 56.624V33.944C217.094 29.768 215.15 26.384 210.974 26.384C206.798 26.384 204.926 28.904 204.926 33.944V56.624ZM256.418 58.784C256.418 66.128 251.018 68 244.754 68H229.922V66.056L232.73 64.04V26.312L230.354 24.512V22.568H244.322C250.946 22.568 255.05 24.224 255.05 30.92V37.472C255.05 39.992 253.826 42.44 251.522 43.448C254.474 44.6 256.418 46.976 256.418 51.152V58.784ZM248.066 30.92C248.066 28.04 246.698 26.6 244.178 26.6H239.57V42.296H244.178C246.842 42.296 248.066 40.28 248.066 37.472V30.92ZM244.61 63.968C247.706 63.968 249.29 62.384 249.362 58.64V51.152C249.362 47.48 247.994 45.68 244.034 45.68H239.57V61.448C239.57 62.672 239.282 63.248 238.13 63.608V63.968H244.61ZM279.582 22.568H291.03V24.44L288.798 26.24V64.04L291.462 66.128V68H279.15V66.128L281.886 64.04L281.814 35.24L279.294 43.52L271.446 64.112L274.038 66.128V68H261.726V66.128L264.39 64.04V26.24L262.158 24.44V22.568H273.606V24.44L271.374 26.24V55.976L273.822 47.84L281.886 26.384L279.582 24.44V22.568ZM324.639 22.568V25.16C322.407 25.16 321.831 26.312 321.039 28.4C319.815 31.64 317.439 42.224 314.919 43.088V43.232C318.159 43.52 319.959 47.624 320.823 51.728L322.839 61.16C323.271 63.176 324.639 65.336 326.511 64.904L326.439 67.568C325.215 68.288 323.271 68.432 322.119 68.432C317.871 68.504 316.359 65.84 315.639 62.168L313.767 53.096C312.975 49.136 311.607 45.896 307.647 45.896H305.703V64.04L308.511 66.056V68H296.127V66.056L298.863 64.04V26.312L296.487 24.512V22.568H308.007V24.512L305.703 26.312V42.08C314.271 42.08 310.671 24.368 319.527 22.712C321.183 22.424 323.055 22.64 324.639 22.568Z" fill="#BF831B"/>
<path fill-rule="evenodd" clip-rule="evenodd" d="M49.7225 39.5666V62.8688H45.1442V36.952V30.0609L43.6361 29.1988L39.1109 26.6147V33.5059V62.8688H34.5326V50.7877H28.4971V62.8688V68.8355H55.7569V62.8688V43.0302L62.9999 47.1657V40.2746L55.7569 36.138V36.1205L49.7225 32.6744V39.5666Z" fill="#BF831B"/>
<path fill-rule="evenodd" clip-rule="evenodd" d="M0 47.1659L7.27289 43.0118V49.9619V62.8689V68.8357H23.9189V62.8689H13.3062V39.5668L28.4972 30.8925V44.8211H34.5327V30.8925V24.0014L31.5155 22.2783L28.4972 24.0014L19.3936 29.1989L0 40.2748V47.1659Z" fill="#BF831B"/>
</svg>
